<svg width="333" height="344" viewBox="0 0 333 344" fill="none" xmlns="http://www.w3.org/2000/svg">
<path fill-rule="evenodd" clip-rule="evenodd" d="M0 333.724C20.9263 340.374 43.5093 344 67.0599 344C78.9071 344 90.5094 343.082 101.779 341.324C113.049 343.082 124.651 344 136.498 344C245.023 344 333 266.993 333 172C333 77.007 245.023 0 136.498 0C124.651 0 113.049 0.917697 101.779 2.67631C90.5094 0.917697 78.9071 0 67.0599 0C43.5093 0 20.9263 3.62641 0 10.2761V11.322C20.9086 4.64459 43.4923 1 67.0599 1C77.7812 1 88.2988 1.75424 98.5477 3.20511C60.6734 9.69188 26.6949 25.702 0 48.2704V49.582C27.3605 26.2334 62.526 9.83814 101.779 3.68698C193.275 18.0248 262.562 88.0205 262.562 172C262.562 255.98 193.275 325.975 101.779 340.313C62.526 334.162 27.3605 317.767 0 294.418V295.73C26.6949 318.298 60.6734 334.308 98.5477 340.795C88.2988 342.246 77.7812 343 67.0599 343C43.4923 343 20.9086 339.355 0 332.678V333.724ZM136.498 1C125.777 1 115.259 1.75423 105.01 3.20511C195.375 18.6819 263.562 88.3709 263.562 172C263.562 255.629 195.375 325.318 105.01 340.795C115.259 342.246 125.777 343 136.498 343C244.6 343 332 266.32 332 172C332 77.6803 244.6 1 136.498 1Z" fill="black"/>
</svg>
