<svg width="333" height="344" viewBox="0 0 333 344" fill="none" xmlns="http://www.w3.org/2000/svg">
<path fill-rule="evenodd" clip-rule="evenodd" d="M333 16.7311C308.652 6.00551 281.388 0 252.601 0C241.348 0 230.328 0.917685 219.624 2.67628C208.919 0.917685 197.899 0 186.646 0C83.5643 0 0 77.007 0 172C0 266.993 83.5643 344 186.646 344C197.899 344 208.919 343.082 219.624 341.324C230.328 343.082 241.348 344 252.601 344C281.388 344 308.652 337.995 333 327.269V326.178C308.68 336.958 281.412 343 252.601 343C242.42 343 232.431 342.246 222.698 340.794C267.132 332.781 305.921 310.238 333 278.755V277.213C305.463 309.67 265.474 332.742 219.624 340.311C132.774 325.973 66.9551 256.014 66.9551 172C66.9551 87.9864 132.774 18.0268 219.624 3.68885C265.474 11.2582 305.463 34.3297 333 66.7873V65.2454C305.921 33.7616 267.132 11.2192 222.698 3.20594C232.431 1.7545 242.42 1 252.601 1C281.412 1 308.68 7.04194 333 17.8218V16.7311ZM186.646 343C196.827 343 206.816 342.246 216.549 340.794C130.72 325.316 65.9551 255.628 65.9551 172C65.9551 88.3724 130.72 18.6844 216.549 3.20594C206.816 1.7545 196.827 1 186.646 1C84.038 1 1 77.6347 1 172C1 266.365 84.038 343 186.646 343Z" fill="black"/>
</svg>
