<svg width="270" height="270" viewBox="0 0 270 270" fill="none" xmlns="http://www.w3.org/2000/svg">
<ellipse cx="134.733" cy="133.484" rx="98.3007" ry="98.1498" fill="#F46B3F"/>
<path d="M14.629 111.645C17.7274 112.441 18.3575 115.141 18.0755 116.816C17.7239 118.905 16.4652 121.203 10.116 120.137C3.87011 119.089 3.31906 116.551 3.68108 114.401C3.96304 112.726 5.1214 110.645 8.63134 110.638L8.6766 110.369L5.51271 109.583C4.23865 110.709 3.77076 112.226 3.41222 114.356C2.69167 118.636 5.01704 122.003 9.67041 122.784C14.2824 123.558 17.6238 121.142 18.3444 116.861C18.7168 114.649 18.6568 113.363 17.901 111.662L14.6743 111.376L14.629 111.645Z" fill="black"/>
<path d="M20.5029 89.0552C20.5029 89.0552 23.3761 90.2288 23.3955 90.2367C23.782 90.6211 24.3209 91.4075 23.8996 92.436C23.4146 93.6197 22.3008 93.5725 21.7378 93.3426C20.573 92.8668 20.1242 91.5282 20.5029 89.0552ZM25.6337 88.0927C25.268 88.9854 24.0528 88.4664 24.0528 88.4664L20.7525 87.1184C18.4422 86.1748 16.6312 86.1147 15.7646 88.2299C15.7646 88.2299 15.3168 89.1569 15.402 90.1658C15.5357 91.4436 15.983 92.0114 16.2185 92.2662C16.4267 92.5325 16.8309 92.6522 17.2096 92.5577C17.7365 92.4332 18.0447 91.9021 17.8931 91.3871C17.7689 90.8607 17.2182 90.5452 16.7107 90.6777C16.4335 90.7457 16.249 90.9195 16.1148 91.1365C16.0477 91.245 15.7265 90.9779 15.6677 90.0704C15.5854 88.2246 17.1249 87.6755 19.1245 88.4922L20.2505 88.9521C19.7452 92.6193 19.4965 94.4432 21.4379 95.2362C23.4375 96.0529 24.3439 93.8407 24.3439 93.8407C24.9004 92.4823 24.6626 91.0714 23.8421 90.4191C25.5594 90.9846 26.1486 89.4357 26.1486 89.4357C26.562 88.4266 26.0946 87.4655 25.5599 87.1112L25.3674 87.3044C25.8165 87.6464 25.6337 88.0927 25.6337 88.0927Z" fill="black"/>
<path d="M38.1358 66.9174C37.5677 67.4194 37.2017 67.324 36.2459 66.6784L32.4575 64.1194C30.3548 62.6991 29.0066 63.2308 28.0538 64.6371C27.3127 65.7308 27.3178 67.4804 28.0787 68.5258L26.254 67.2933L25.1346 70.0295L25.3432 70.1704C26.0284 69.5703 26.3484 69.584 26.9566 69.9949L31.805 73.2699C32.6912 73.8686 32.9749 74.0855 32.7191 74.8743L32.945 75.0269L34.9212 72.1103L34.6953 71.9577C34.1154 72.4771 33.7959 72.3878 32.8402 71.7422L28.6174 68.8897C28.0859 68.3282 27.7111 67.0122 28.3227 66.1094C29.0991 64.9636 30.3046 64.8668 31.4863 65.665L35.2225 68.1888C36.1087 68.7875 36.4154 69.0452 36.1595 69.8341L36.3681 69.9749L38.3443 67.0583L38.1358 66.9174Z" fill="black"/>
<path d="M45.9047 43.4537L46.0785 43.6356C47.8255 41.9427 49.1578 45.2496 49.1578 45.2496L50.7922 48.9637L45.0558 46.724C45.0558 46.724 43.4668 46.1234 44.4538 45.1832L44.2799 45.0013L41.1367 47.9953L41.3105 48.1772C41.5528 47.9754 42.1422 47.5299 43.1123 47.9381C43.1123 47.9381 46.1731 49.0773 51.7901 51.3438L52.9467 53.9203C53.2701 54.6839 53.154 55.1999 52.8905 55.0454C52.6414 54.9062 52.3164 54.8392 52.0169 54.9508C51.4483 55.1449 51.1514 55.7752 51.3451 56.3726C51.5692 56.9411 52.1854 57.252 52.7692 57.0435C53.1881 56.9051 53.5256 56.4388 53.5789 56.0695C53.6176 55.6851 53.6944 54.9458 53.1579 53.7771L49.3835 45.1215C48.0918 41.9786 48.4777 41.3504 49.0092 40.8441L48.8354 40.6622L45.9047 43.4537Z" fill="black"/>
<path d="M71.3635 29.9597C73.3423 33.1988 72.9318 34.5783 71.5705 35.4073C70.1914 36.2472 68.7572 35.9912 66.7784 32.7521C64.7996 29.513 65.2281 28.1225 66.6072 27.2826C67.9684 26.4536 69.3848 26.7205 71.3635 29.9597ZM73.2083 28.8361C71.7653 26.4739 69.2054 25.3811 66.4651 27.05C63.7427 28.708 63.5084 31.5025 64.9515 33.8647C66.3837 36.209 68.9902 37.298 71.7127 35.6399C74.453 33.971 74.6405 31.1805 73.2083 28.8361Z" fill="black"/>
<path d="M98.3148 22.6676C97.5593 22.7293 97.3235 22.4337 96.9454 21.344L95.4465 17.0251C94.6146 14.6279 93.2168 14.246 91.6115 14.8014C90.363 15.2334 89.3187 16.6376 89.3013 17.9307L88.5793 15.8505L86.0438 17.3712L86.1263 17.609C87.0343 17.5389 87.2822 17.7416 87.5229 18.435L89.4411 23.9625C89.7918 24.9729 89.8889 25.3166 89.2114 25.795L89.3008 26.0526L92.6302 24.9007L92.5409 24.6431C91.7655 24.7116 91.5633 24.4488 91.1852 23.3591L89.5144 18.5449C89.4254 17.7768 89.914 16.4982 90.9446 16.1417C92.2526 15.6891 93.2754 16.3338 93.743 17.681L95.2212 21.9405C95.5718 22.9509 95.6628 23.3411 94.9854 23.8196L95.0679 24.0573L98.3973 22.9054L98.3148 22.6676Z" fill="black"/>
<path d="M133.604 10.5181L133.809 2.61474L134.186 2.62452C136.639 2.68805 138.841 2.72409 138.738 6.70722C138.637 10.5855 136.539 10.5941 133.982 10.5279L133.604 10.5181ZM133.597 10.7906L133.975 10.8004C138.146 10.9084 140.927 10.477 141.023 6.7664C141.119 3.03485 138.365 2.46004 134.193 2.35199L130.399 2.25371L130.392 2.52624C131.44 2.55339 131.72 3.08508 131.683 4.53159L131.431 14.2378C131.38 16.2294 131.009 16.7652 129.982 16.7386L129.975 17.0111L135.509 17.1545L135.516 16.882C134.196 16.8477 133.443 16.7443 133.508 14.2287L133.597 10.7906Z" fill="black"/>
<path d="M160.224 19.6467C159.545 19.3098 159.508 18.9803 159.749 17.8522L162.569 4.60199L159.621 4.55496L159.564 4.82161C160.37 5.16421 160.493 5.49055 160.341 6.20844L157.943 17.4691C157.721 18.5151 157.605 18.8551 156.778 18.9153L156.721 19.1819L160.167 19.9134L160.224 19.6467Z" fill="black"/>
<path d="M182.058 26.4214C181.281 25.9936 181.154 25.8062 181.533 24.8736L184.595 17.3353L181.841 16.6495L181.746 16.8827C182.675 17.3267 182.58 17.4469 182.099 18.6321L180.11 23.5281C179.429 24.2024 178.453 24.5991 177.481 24.2054C176.353 23.7489 175.708 22.8312 176.307 21.3546L178.881 15.0208L175.97 14.2721L175.876 14.5053C176.952 15.0317 176.893 15.121 176.388 16.3644L174.612 20.7359C173.625 23.1644 174.8 24.2285 176.2 24.7953C177.502 25.3228 179.144 24.9019 179.913 24.0139L179.242 25.6653C179.242 25.6653 179.084 26.0539 179.59 26.1457L181.956 26.674L182.058 26.4214Z" fill="black"/>
<path d="M207.917 41.9935C207.43 41.4127 207.536 41.05 208.209 40.1134L210.877 36.401C212.358 34.3405 212 33.0779 210.602 32.0764C209.511 31.2947 207.901 31.3792 206.872 32.1641C207.568 30.7281 207.193 29.6336 206 28.7786C204.926 28.0091 203.408 28.1085 202.335 28.8104L203.596 27.0564L200.889 25.8647L200.742 26.0691C201.323 26.7694 201.251 27.1566 200.823 27.7526L197.457 32.4356C196.833 33.304 196.608 33.5813 195.826 33.3045L195.666 33.5259L198.53 35.5778L198.689 35.3565C198.186 34.7635 198.284 34.447 198.957 33.5104L201.931 29.3724C202.467 28.8789 203.734 28.4453 204.586 29.056C205.677 29.8377 205.636 30.8656 204.755 32.0917L202.123 35.753C201.499 36.6214 201.232 36.9206 200.45 36.6438L200.303 36.8481L203.167 38.9001L203.314 38.6957C202.81 38.1027 202.933 37.7522 203.606 36.8156L206.25 33.1373C206.36 32.9841 206.458 32.8478 206.544 32.7286C206.997 32.0986 208.337 31.7431 209.189 32.3538C210.28 33.1355 210.238 34.1634 209.357 35.3895L206.726 39.0507C206.102 39.9192 205.835 40.2184 205.053 39.9415L204.906 40.1459L207.77 42.1978L207.917 41.9935Z" fill="black"/>
<path d="M228.215 55.7911C225.687 57.9658 224.002 57.6178 223.084 56.5541C222.166 55.4904 222.191 53.947 223.844 52.5246L226.244 50.4593C227.469 49.4061 228.886 49.348 229.887 50.5069C231.079 51.8881 230.71 53.6437 228.215 55.7911ZM229.876 57.2665C232.054 55.3927 232.699 52.7068 230.877 50.5953C230.178 49.7857 228.833 49.0617 227.564 49.324L233.08 44.5779L230.76 42.7564L230.553 42.9342C231.002 43.7104 230.902 44.0447 230.362 44.5098L220.236 53.2224C219.981 53.4412 220.98 53.8274 221.795 53.873C221.754 54.8209 222.11 55.8429 222.918 56.7795C224.74 58.891 227.428 59.3729 229.876 57.2665Z" fill="black"/>
<path d="M245.881 68.0868C246.181 68.5916 246.842 68.7605 247.347 68.4613C247.871 68.1514 248.021 67.5017 247.721 66.9968C247.411 66.474 246.778 66.3124 246.255 66.6223C245.75 66.9215 245.57 67.564 245.881 68.0868ZM237.126 75.5628C236.903 74.8176 237.12 74.5671 238.13 73.9687L244.951 69.9293L242.96 67.7692L242.744 67.8974C242.995 68.7722 242.828 69.066 242.197 69.4401L237.199 72.4001C236.278 72.9451 235.932 73.1014 235.327 72.5338L235.092 72.6728L236.891 75.7017L237.126 75.5628Z" fill="black"/>
<path d="M246.466 95.7041C246.384 94.9509 246.674 94.7079 247.754 94.3027L252.034 92.6967C254.41 91.8053 254.754 90.3993 254.156 88.8095C253.691 87.573 252.258 86.565 250.964 86.5801L253.026 85.8066L251.437 83.3117L251.201 83.4001C251.296 84.3055 251.1 84.5583 250.412 84.8161L244.934 86.8715C243.933 87.2472 243.592 87.3528 243.095 86.688L242.84 86.7838L244.081 90.0811L244.336 89.9853C244.247 89.2125 244.505 89.0038 245.584 88.5986L250.356 86.8085C251.121 86.7003 252.413 87.1563 252.798 88.1769C253.285 89.4722 252.667 90.5103 251.332 91.0113L247.111 92.5951C246.11 92.9709 245.722 93.0716 245.225 92.4068L244.99 92.4952L246.23 95.7925L246.466 95.7041Z" fill="black"/>
<path d="M258.264 116.725C255.94 117.065 255.171 116.012 255.031 115.057C254.897 114.144 255.329 112.894 257.653 112.555C259.977 112.215 260.71 113.168 260.862 114.205C260.993 115.097 260.588 116.386 258.264 116.725ZM260.462 120.007C260.852 120.353 261.442 120.33 261.811 119.958C262.048 119.691 262.094 119.281 262.024 118.952C261.889 118.463 261.477 117.676 260.588 117.255C261.09 116.482 261.314 115.411 261.132 114.166C260.782 111.78 259.069 110.504 257.388 110.75C256.289 110.91 255.226 111.617 254.91 112.786C254.067 110.938 252.336 111.276 252.336 111.276C251.589 111.385 251.078 111.799 250.875 112.443C249.907 111.186 248.238 110.497 246.939 111.471C245.487 112.552 245.653 115.855 247.667 118.465C249.211 120.464 250.839 120.29 250.839 120.29C253.612 120.266 253.161 117.768 252.951 116.336L252.586 113.846C252.227 111.398 254.516 112.123 254.825 113.074C254.676 113.647 254.643 114.287 254.761 115.097C255.117 117.524 256.848 118.776 258.529 118.531C259.276 118.421 260.007 118.06 260.45 117.466C261.044 117.76 261.221 118.391 261.049 118.374C260.812 118.345 260.575 118.465 260.392 118.661C260.022 119.033 260.069 119.641 260.462 120.007ZM247.641 112.789C247.605 112.836 249.173 110.954 250.77 112.734C250.586 113.503 250.725 114.309 250.758 114.537L251.178 117.401C251.44 119.185 250.393 119.423 250.393 119.423C250.393 119.423 249.108 119.759 247.874 118.286C246.462 116.606 246.622 113.934 247.641 112.789Z" fill="black"/>
<path d="M255.83 158.776C255.83 158.776 252.787 158.164 252.767 158.16C252.315 157.855 251.637 157.184 251.857 156.095C252.11 154.841 253.213 154.678 253.809 154.797C255.042 155.046 255.735 156.276 255.83 158.776ZM250.973 160.687C251.164 159.741 252.455 160.023 252.455 160.023L255.95 160.726C258.396 161.218 260.186 160.936 260.638 158.696C260.638 158.696 260.903 157.701 260.629 156.726C260.257 155.496 259.711 155.022 259.432 154.816C259.177 154.594 258.757 154.552 258.403 154.717C257.909 154.938 257.707 155.518 257.953 155.995C258.174 156.489 258.774 156.695 259.248 156.469C259.507 156.35 259.656 156.145 259.746 155.907C259.792 155.787 260.158 155.989 260.386 156.87C260.815 158.667 259.407 159.496 257.289 159.07L256.097 158.83C255.902 155.133 255.802 153.295 253.746 152.881C251.629 152.455 251.156 154.798 251.156 154.798C250.865 156.237 251.365 157.579 252.294 158.065C250.501 157.833 250.214 159.465 250.214 159.465C249.998 160.534 250.639 161.39 251.23 161.637L251.383 161.411C250.878 161.16 250.973 160.687 250.973 160.687Z" fill="black"/>
<path d="M242.686 183.833C243.149 183.233 243.527 183.258 244.587 183.712L248.789 185.513C251.122 186.512 252.345 185.736 253.016 184.175C253.538 182.961 253.203 181.244 252.259 180.36L254.283 181.227L254.867 178.329L254.635 178.23C254.075 178.948 253.759 178.995 253.084 178.706L247.706 176.402C246.723 175.981 246.403 175.821 246.506 174.998L246.255 174.89L244.864 178.127L245.115 178.235C245.586 177.615 245.917 177.643 246.977 178.097L251.661 180.104C252.289 180.556 252.905 181.778 252.474 182.78C251.928 184.051 250.762 184.373 249.452 183.812L245.307 182.036C244.324 181.615 243.975 181.419 244.077 180.596L243.846 180.497L242.455 183.734L242.686 183.833Z" fill="black"/>
<path d="M233.031 205.68C231.835 204.828 231.624 203.391 232.429 202.265C233.489 200.78 235.341 200.786 238.057 202.72C240.79 204.666 240.776 206.381 239.972 207.507C239.228 208.548 237.677 208.988 236.02 207.808L233.031 205.68ZM229.396 206.619C229.884 205.936 230.12 205.821 230.958 206.417L242.232 214.445L243.441 211.779L243.219 211.621C242.582 212.223 242.238 212.236 241.64 211.81L238.087 209.28C238.882 208.997 239.621 208.467 240.218 207.631C241.852 205.344 241.733 202.66 239.085 200.775C236.694 199.072 233.945 199.096 232.311 201.383C231.714 202.219 231.29 203.642 231.784 204.792L230.844 204.123C230.844 204.123 230.451 203.843 230.195 204.382L229.174 206.461L229.396 206.619Z" fill="black"/>
<path d="M205.02 244.32C206.156 246.008 206.356 246.379 205.643 247.085L205.795 247.311L208.877 245.242L208.725 245.016C208.132 245.187 207.88 244.851 206.744 243.163L204.179 239.354L208.95 236.152L211.515 239.961C212.651 241.649 212.868 242.008 212.486 242.492L212.638 242.718L215.737 240.638L215.585 240.412C214.644 240.816 214.293 240.37 213.239 238.804L208.215 231.341C207.09 229.671 206.886 229.48 207.645 228.617L207.492 228.391L204.393 230.472L204.545 230.698C205.15 230.544 205.296 230.724 206.491 232.498L208.751 235.856L203.98 239.058L201.72 235.701C200.677 234.153 200.431 233.712 200.784 233.222L200.632 232.996L197.55 235.065L197.702 235.291C198.772 234.927 199.036 235.431 199.996 236.858L205.02 244.32Z" fill="black"/>
<path d="M184.208 248.076C185.184 250.532 184.548 252.566 183.437 253.006C182.501 253.377 180.777 252.729 179.646 249.884L184.208 248.076ZM177.509 247.798C177.48 246.704 178.578 245.435 179.794 245.088C181.396 244.634 182.984 245.223 184.108 247.823L177.869 250.295C179.084 253.354 181.217 254.179 183.479 253.283C185.896 252.325 186.986 249.728 185.84 246.844C184.817 244.271 182.277 242.932 179.84 243.897C177.539 244.809 177.086 246.792 177.236 247.793L177.509 247.798Z" fill="black"/>
<path d="M157.405 256.079C157.405 256.079 156.852 253.025 156.849 253.004C156.965 252.472 157.339 251.595 158.433 251.397C159.692 251.17 160.25 252.135 160.358 252.733C160.583 253.971 159.695 255.069 157.405 256.079ZM153.838 252.269C154.788 252.098 155.002 253.402 155.002 253.402L155.638 256.91C156.082 259.365 157.004 260.925 159.253 260.519C159.253 260.519 160.276 260.398 161.081 259.784C162.087 258.984 162.326 258.302 162.414 257.966C162.527 257.648 162.411 257.243 162.128 256.974C161.74 256.597 161.127 256.622 160.774 257.027C160.396 257.414 160.426 258.048 160.81 258.405C161.016 258.602 161.262 258.665 161.517 258.661C161.645 258.659 161.592 259.074 160.858 259.611C159.345 260.673 158.055 259.67 157.671 257.544L157.454 256.347C160.818 254.802 162.49 254.032 162.117 251.968C161.732 249.843 159.379 250.267 159.379 250.267C157.935 250.528 156.872 251.487 156.763 252.53C156.317 250.778 154.695 251.113 154.695 251.113C153.621 251.307 153.062 252.218 153.05 252.859L153.316 252.917C153.364 252.355 153.838 252.269 153.838 252.269Z" fill="black"/>
<path d="M133.275 254.691C133.444 254.251 133.95 253.813 134.558 253.816C135.544 253.821 136.149 254.39 136.141 256.067L136.111 262.401L133.679 262.389L133.615 262.661L136.11 262.673L136.095 265.945L137.921 265.66L137.935 262.682L139.046 262.687L139.005 262.414L137.936 262.409L137.966 256.013C137.978 253.476 137.058 252.8 135.527 252.793C134.311 252.787 133.363 253.664 133.065 254.585L133.275 254.691Z" fill="black"/>
<path d="M115.536 263.154C114.956 263.062 114.403 263.463 114.311 264.043C114.215 264.643 114.619 265.174 115.199 265.267C115.8 265.362 116.328 264.979 116.424 264.378C116.516 263.798 116.136 263.249 115.536 263.154ZM115.373 251.641C116.089 251.946 116.143 252.273 115.958 253.433L114.712 261.261L117.645 261.111L117.684 260.862C116.851 260.496 116.731 260.18 116.846 259.455L117.76 253.719C117.928 252.662 118.029 252.296 118.852 252.193L118.895 251.924L115.415 251.372L115.373 251.641Z" fill="black"/>
<path d="M93.8943 245.953C94.5261 246.371 94.5281 246.749 94.15 247.839L92.6511 252.158C91.8192 254.555 92.6807 255.719 94.2859 256.274C95.5345 256.706 97.2251 256.248 98.0401 255.243L97.3181 257.323L100.252 257.695L100.335 257.457C99.5782 256.951 99.509 256.639 99.7497 255.945L101.668 250.418C102.019 249.407 102.155 249.077 102.984 249.12L103.073 248.863L99.7439 247.711L99.6546 247.968C100.306 248.393 100.302 248.725 99.9239 249.814L98.2532 254.629C97.8471 255.287 96.671 255.99 95.6404 255.633C94.3324 255.181 93.9284 254.042 94.3959 252.695L95.8741 248.435C96.2248 247.425 96.3951 247.062 97.2238 247.105L97.3063 246.867L93.9768 245.715L93.8943 245.953Z" fill="black"/>
<path d="M70.1531 241.596C71.3775 239.592 72.6796 239.673 73.5035 240.175C74.2916 240.655 74.9776 241.785 73.7531 243.789C72.5287 245.793 71.3271 245.749 70.4315 245.203C69.6614 244.734 68.9287 243.601 70.1531 241.596ZM66.2228 241.192C65.7075 241.271 65.3477 241.739 65.3977 242.261C65.4526 242.613 65.7382 242.91 66.0357 243.067C66.4984 243.275 67.3679 243.46 68.2599 243.046C68.5339 243.925 69.2148 244.782 70.2894 245.436C72.3491 246.691 74.4258 246.187 75.3114 244.738C75.8908 243.789 76.0264 242.521 75.3286 241.532C77.2894 242.063 78.1361 240.516 78.1361 240.516C78.5297 239.872 78.5383 239.214 78.1719 238.647C79.7585 238.705 81.3556 237.861 81.4363 236.24C81.5328 234.433 78.8848 232.452 75.5893 232.336C73.0637 232.246 72.1572 233.609 72.1572 233.609C70.4027 235.757 72.6136 237.005 73.8494 237.758L75.9987 239.067C78.1122 240.354 76.0906 241.652 75.1613 241.283C74.8159 240.802 74.3442 240.367 73.6457 239.942C71.5501 238.666 69.4804 239.198 68.5949 240.647C68.2013 241.292 68.0117 242.085 68.1862 242.805C67.5795 243.074 66.9806 242.807 67.1039 242.686C67.2779 242.522 67.3374 242.263 67.3034 241.997C67.2534 241.475 66.7559 241.123 66.2228 241.192ZM79.9739 235.939C79.96 235.881 80.4059 238.289 78.0156 238.38C77.5418 237.748 76.8323 237.34 76.6353 237.22L74.1637 235.715C72.6233 234.777 73.1092 233.821 73.1092 233.821C73.1092 233.821 73.6726 232.617 75.5944 232.609C77.7897 232.595 79.7443 234.424 79.9739 235.939Z" fill="black"/>
<path d="M36.5599 208.384C40.1518 206.032 42.3664 208.826 43.7334 210.605L44.1988 211.2L34.4629 218.801C33.2728 219.73 32.5909 219.438 32.0349 218.728L31.8201 218.895L34.8974 222.825L35.1123 222.657C34.5563 221.947 34.6779 221.32 35.6862 220.533L43.7526 214.235C44.8766 213.358 45.6599 213.065 46.2159 213.775L46.4308 213.607L39.9787 205.369L36.3918 208.169L36.5599 208.384Z" fill="black"/>
<path d="M17.6268 198.189L20.9879 196.664L20.8749 196.416C17.7656 197.734 16.433 194.908 16.1637 194.316L15.6511 193.19L26.9947 188.043C28.2551 187.471 28.8594 187.888 29.2243 188.689L29.4726 188.577L27.3529 183.919L27.1046 184.032C27.4695 184.834 27.395 185.581 26.1347 186.153L14.7911 191.3L14.2786 190.174C14.1569 189.907 12.7444 186.702 15.7842 185.231L15.6713 184.983L12.3102 186.508L17.6268 198.189Z" fill="black"/>
<path d="M11.1348 155.844C17.9921 154.64 18.7104 158.112 19.1034 160.342L19.2635 161.251L5.25974 163.711L5.09962 162.803C4.6993 160.531 4.46333 157.016 11.1348 155.844ZM10.698 153.366C4.64626 154.429 4.1069 158.74 4.83111 162.85L5.61354 167.29L5.88205 167.243C5.72193 166.334 6.52273 165.682 7.80331 165.457L17.449 163.763C18.8535 163.516 19.7293 163.895 19.8858 164.783L20.1543 164.736L19.3719 160.295C18.6477 156.185 16.9357 152.27 10.698 153.366Z" fill="black"/>
</svg>
