<svg width="206" height="207" viewBox="0 0 206 207" fill="none" xmlns="http://www.w3.org/2000/svg">
<path d="M11.1878 85.3311C13.5517 85.9393 14.0329 87.9996 13.8181 89.2777C13.5502 90.8713 12.5904 92.6245 7.74634 91.8104C2.98117 91.0095 2.56031 89.073 2.83611 87.432C3.05091 86.1539 3.93425 84.5663 6.61199 84.5621L6.64646 84.357L4.23259 83.7566C3.26081 84.6154 2.90413 85.7723 2.63098 87.3975C2.08205 90.6637 3.85669 93.2334 7.4069 93.83C10.9255 94.4214 13.4743 92.5783 14.0232 89.3121C14.307 87.6238 14.261 86.6426 13.684 85.3451L11.2223 85.126L11.1878 85.3311Z" fill="black"/>
<path d="M15.6662 68.0668C15.6662 68.0668 17.8579 68.9634 17.8727 68.9694C18.1675 69.2629 18.5788 69.8633 18.2577 70.6482C17.8882 71.5516 17.0387 71.5152 16.6092 71.3395C15.7207 70.9761 15.3781 69.9543 15.6662 68.0668ZM19.579 67.3337C19.3004 68.0149 18.3735 67.6185 18.3735 67.6185L15.8559 66.5886C14.0937 65.8677 12.7124 65.8213 12.0521 67.4355C12.0521 67.4355 11.7109 68.1429 11.7762 68.913C11.8785 69.8884 12.2198 70.3218 12.3995 70.5164C12.5584 70.7197 12.8667 70.8112 13.1554 70.7392C13.5573 70.6442 13.7922 70.239 13.6764 69.8459C13.5815 69.4441 13.1615 69.2031 12.7744 69.3041C12.5631 69.3559 12.4224 69.4885 12.3201 69.6541C12.2689 69.7369 12.0239 69.5329 11.9788 68.8403C11.9155 67.4314 13.0894 67.0127 14.6147 67.6367L15.4736 67.9881C15.0893 70.7869 14.9002 72.179 16.3811 72.7847C17.9064 73.4087 18.597 71.7205 18.597 71.7205C19.021 70.6839 18.8393 69.6069 18.2133 69.1088C19.5232 69.5409 19.9721 68.3589 19.9721 68.3589C20.2871 67.5888 19.9304 66.8551 19.5225 66.5845L19.3757 66.732C19.7183 66.9931 19.579 67.3337 19.579 67.3337Z" fill="black"/>
<path d="M29.1111 51.154C28.6781 51.5371 28.399 51.4642 27.6701 50.9711L24.7812 49.0166C23.1776 47.9318 22.1498 48.3375 21.4236 49.4109C20.8587 50.2458 20.863 51.5816 21.4433 52.3799L20.0518 51.4385L19.1989 53.5273L19.358 53.6349C19.8803 53.1769 20.1243 53.1875 20.5881 53.5013L24.2855 56.0026C24.9613 56.4599 25.1776 56.6255 24.9827 57.2277L25.155 57.3443L26.6612 55.1179L26.4889 55.0014C26.0469 55.3978 25.8033 55.3296 25.0744 54.8364L21.8541 52.6578C21.4488 52.2291 21.1627 51.2242 21.6289 50.5351C22.2207 49.6604 23.1398 49.5868 24.0409 50.1965L26.8901 52.124C27.566 52.5813 27.7999 52.7781 27.6049 53.3803L27.764 53.4879L29.2702 51.2616L29.1111 51.154Z" fill="black"/>
<path d="M35.0383 33.2255L35.1709 33.3644C36.5027 32.0717 37.5184 34.5966 37.5184 34.5966L38.7643 37.4326L34.391 35.7226C34.391 35.7226 33.1796 35.264 33.9321 34.5461L33.7996 34.4072L31.4032 36.6934L31.5357 36.8323C31.7204 36.6782 32.1698 36.338 32.9093 36.6496C32.9093 36.6496 35.2428 37.5194 39.525 39.2499L40.4067 41.2171C40.6532 41.8001 40.5647 42.1941 40.3638 42.0762C40.1739 41.9699 39.9262 41.9188 39.6978 42.0039C39.2643 42.1521 39.0379 42.6334 39.1856 43.0896C39.3565 43.5237 39.8262 43.7611 40.2713 43.6018C40.5907 43.4961 40.848 43.1401 40.8886 42.8581C40.9182 42.5646 40.9767 42.0001 40.5677 41.1077L37.6904 34.4988C36.7058 32.0991 37 31.6194 37.4052 31.2329L37.2727 31.094L35.0383 33.2255Z" fill="black"/>
<path d="M54.4556 22.9112C55.9637 25.3836 55.6503 26.4368 54.6122 27.07C53.5604 27.7116 52.4668 27.5165 50.9588 25.0441C49.4508 22.5717 49.7778 21.5101 50.8296 20.8686C51.8677 20.2354 52.9476 20.4388 54.4556 22.9112ZM55.8626 22.053C54.7628 20.25 52.8112 19.4163 50.7213 20.691C48.645 21.9574 48.4657 24.0909 49.5655 25.8939C50.657 27.6833 52.6442 28.514 54.7205 27.2476C56.8104 25.9728 56.954 23.8424 55.8626 22.053Z" fill="black"/>
<path d="M75.0135 17.3331C74.4372 17.3804 74.2575 17.1548 73.9694 16.3234L72.8274 13.0276C72.1935 11.1983 71.1274 10.9073 69.9029 11.3316C68.9504 11.6617 68.1535 12.7337 68.1399 13.7205L67.5898 12.1331L65.6554 13.2945L65.7183 13.4759C66.4109 13.4222 66.5999 13.5768 66.7833 14.1059L68.2448 18.3239C68.512 19.0949 68.5859 19.3572 68.0691 19.7225L68.1372 19.9191L70.677 19.039L70.6089 18.8424C70.0175 18.895 69.8634 18.6944 69.5752 17.8629L68.3023 14.1892C68.2346 13.603 68.6076 12.6271 69.3938 12.3547C70.3916 12.009 71.1716 12.5007 71.5278 13.5287L72.6541 16.7791C72.9213 17.5501 72.9905 17.8479 72.4737 18.2132L72.5365 18.3946L75.0764 17.5146L75.0135 17.3331Z" fill="black"/>
<path d="M101.935 8.05452L102.091 2.02455L102.379 2.032C104.25 2.08047 105.93 2.10798 105.851 5.14696C105.775 8.10597 104.174 8.11252 102.223 8.06198L101.935 8.05452ZM101.929 8.26245L102.217 8.26991C105.4 8.35235 107.521 8.02316 107.595 5.19211C107.668 2.34507 105.567 1.90651 102.384 1.82407L99.489 1.74909L99.4837 1.95702C100.283 1.97773 100.497 2.3834 100.468 3.48703L100.277 10.8925C100.237 12.412 99.9545 12.8209 99.1708 12.8006L99.1654 13.0085L103.388 13.1179L103.393 12.9099C102.386 12.8838 101.812 12.8049 101.861 10.8856L101.929 8.26245Z" fill="black"/>
<path d="M122.243 15.0234C121.725 14.7661 121.697 14.5147 121.88 13.654L124.029 3.54384L121.779 3.50731L121.736 3.71076C122.351 3.97236 122.445 4.22141 122.329 4.76917L120.502 13.3612C120.333 14.1594 120.245 14.4188 119.614 14.4645L119.57 14.668L122.2 15.2269L122.243 15.0234Z" fill="black"/>
<path d="M138.897 20.201C138.305 19.8742 138.207 19.7311 138.496 19.0195L140.83 13.2667L138.729 12.7425L138.656 12.9205C139.365 13.2596 139.293 13.3514 138.926 14.2558L137.411 17.9921C136.891 18.5066 136.147 18.809 135.406 18.5083C134.546 18.1595 134.053 17.4589 134.51 16.3321L136.471 11.4986L134.251 10.9263L134.179 11.1042C135 11.5063 134.955 11.5744 134.57 12.5233L133.217 15.8593C132.465 17.7126 133.361 18.5251 134.429 18.9582C135.422 19.3611 136.675 19.0404 137.26 18.3628L136.749 19.6231C136.749 19.6231 136.629 19.9196 137.015 19.9898L138.819 20.3937L138.897 20.201Z" fill="black"/>
<path d="M158.618 32.0989C158.247 31.6555 158.328 31.3785 158.841 30.6635L160.875 27.8297C162.003 26.2568 161.73 25.2927 160.664 24.5278C159.832 23.9308 158.605 23.995 157.82 24.5941C158.351 23.4979 158.064 22.6621 157.154 22.0091C156.335 21.4214 155.178 21.497 154.361 22.0328L155.321 20.6938L153.257 19.7835L153.145 19.9395C153.588 20.4743 153.534 20.7699 153.207 21.2249L150.642 24.7997C150.166 25.4626 149.995 25.6743 149.398 25.4628L149.277 25.6318L151.461 27.199L151.582 27.03C151.198 26.5772 151.273 26.3355 151.786 25.6206L154.053 22.4617C154.461 22.0851 155.427 21.7542 156.077 22.2207C156.909 22.8177 156.877 23.6025 156.206 24.5385L154.2 27.3333C153.724 27.9963 153.521 28.2246 152.925 28.0131L152.813 28.1691L154.997 29.7363L155.109 29.5803C154.725 29.1275 154.818 28.8598 155.331 28.1449L157.346 25.337C157.43 25.22 157.505 25.116 157.57 25.025C157.915 24.5441 158.937 24.2729 159.587 24.7393C160.419 25.3363 160.387 26.1212 159.716 27.0571L157.71 29.852C157.234 30.5149 157.031 30.7433 156.434 30.5318L156.323 30.6878L158.506 32.2549L158.618 32.0989Z" fill="black"/>
<path d="M174.098 42.643C172.171 44.3037 170.886 44.0381 170.186 43.226C169.487 42.4139 169.506 41.2355 170.767 40.1493L172.597 38.5721C173.53 37.7679 174.611 37.7234 175.374 38.6082C176.282 39.6627 176.001 41.0032 174.098 42.643ZM175.365 43.7694C177.025 42.3385 177.518 40.2876 176.129 38.6756C175.596 38.0575 174.571 37.5048 173.603 37.7052L177.809 34.0809L176.04 32.6903L175.882 32.8261C176.224 33.4187 176.148 33.674 175.736 34.0291L168.016 40.6824C167.822 40.8495 168.582 41.1442 169.204 41.1791C169.173 41.9028 169.444 42.6831 170.06 43.3982C171.449 45.0102 173.498 45.3779 175.365 43.7694Z" fill="black"/>
<path d="M187.573 52.0403C187.802 52.4256 188.306 52.5544 188.691 52.3258C189.091 52.0891 189.206 51.593 188.977 51.2077C188.74 50.8086 188.258 50.6854 187.859 50.9222C187.474 51.1507 187.337 51.6412 187.573 52.0403ZM180.896 57.7497C180.726 57.1808 180.891 56.9896 181.662 56.5325L186.864 53.4471L185.346 51.7985L185.181 51.8965C185.373 52.5642 185.245 52.7886 184.764 53.0743L180.952 55.3353C180.25 55.7515 179.986 55.8709 179.524 55.4378L179.346 55.5439L180.717 57.8558L180.896 57.7497Z" fill="black"/>
<path d="M188.016 73.1311C187.954 72.5562 188.175 72.3707 188.998 72.0611L192.263 70.8342C194.076 70.1532 194.339 69.0799 193.883 67.8668C193.528 66.9232 192.436 66.1543 191.449 66.1662L193.022 65.5752L191.811 63.6716L191.631 63.7391C191.703 64.4301 191.553 64.6231 191.029 64.82L186.85 66.3903C186.086 66.6774 185.826 66.7581 185.447 66.2508L185.253 66.324L186.198 68.8402L186.393 68.767C186.325 68.1772 186.522 68.0179 187.345 67.7083L190.985 66.3407C191.569 66.2579 192.554 66.6055 192.847 67.3843C193.219 68.3728 192.747 69.1653 191.729 69.548L188.509 70.7581C187.745 71.0451 187.449 71.1221 187.07 70.6149L186.891 70.6824L187.836 73.1986L188.016 73.1311Z" fill="black"/>
<path d="M197.016 89.1902C195.243 89.4497 194.657 88.6461 194.55 87.9179C194.448 87.2213 194.777 86.2676 196.551 86.0081C198.324 85.7486 198.883 86.4753 198.999 87.2669C199.098 87.9476 198.789 88.9307 197.016 89.1902ZM198.692 91.6939C198.99 91.9576 199.44 91.9402 199.722 91.6564C199.902 91.4521 199.937 91.1398 199.884 90.8888C199.781 90.5158 199.467 89.915 198.789 89.5937C199.172 89.0041 199.343 88.1866 199.204 87.2368C198.938 85.4161 197.631 84.4431 196.349 84.6308C195.51 84.7536 194.699 85.2926 194.458 86.1849C193.815 84.7752 192.495 85.0331 192.495 85.0331C191.925 85.1165 191.534 85.4324 191.38 85.9239C190.641 84.9648 189.368 84.4396 188.377 85.183C187.269 86.0081 187.395 88.5284 188.931 90.5189C190.109 92.0445 191.351 91.9113 191.351 91.9113C193.466 91.8927 193.122 89.9864 192.963 88.894L192.685 86.9943C192.411 85.1262 194.158 85.6791 194.393 86.4047C194.279 86.8418 194.254 87.3306 194.344 87.948C194.615 89.8003 195.935 90.7552 197.218 90.5675C197.788 90.4841 198.346 90.2084 198.684 89.7547C199.137 89.9794 199.272 90.461 199.141 90.4478C198.96 90.4258 198.779 90.5169 198.639 90.6668C198.357 90.9506 198.393 91.4143 198.692 91.6939ZM188.912 86.188C188.885 86.2243 190.082 84.7879 191.299 86.146C191.159 86.7325 191.265 87.3476 191.29 87.5217L191.61 89.7065C191.809 91.068 191.011 91.2495 191.011 91.2495C191.011 91.2495 190.03 91.5062 189.089 90.3826C188.012 89.101 188.134 87.0619 188.912 86.188Z" fill="black"/>
<path d="M195.162 121.315C195.162 121.315 192.841 120.847 192.825 120.844C192.48 120.611 191.963 120.099 192.131 119.267C192.324 118.311 193.165 118.186 193.619 118.278C194.561 118.468 195.09 119.407 195.162 121.315ZM191.457 122.771C191.603 122.05 192.588 122.265 192.588 122.265L195.254 122.802C197.12 123.178 198.486 122.964 198.83 121.254C198.83 121.254 199.032 120.495 198.823 119.751C198.539 118.812 198.122 118.451 197.909 118.294C197.715 118.124 197.395 118.092 197.125 118.217C196.748 118.386 196.593 118.828 196.781 119.193C196.95 119.569 197.408 119.727 197.769 119.555C197.967 119.464 198.08 119.307 198.149 119.126C198.184 119.035 198.463 119.189 198.638 119.861C198.965 121.232 197.891 121.865 196.276 121.539L195.366 121.356C195.216 118.535 195.14 117.132 193.571 116.816C191.956 116.49 191.596 118.278 191.596 118.278C191.374 119.376 191.756 120.4 192.464 120.771C191.096 120.593 190.878 121.839 190.878 121.839C190.714 122.654 191.202 123.308 191.654 123.497L191.77 123.324C191.385 123.132 191.457 122.771 191.457 122.771Z" fill="black"/>
<path d="M185.14 140.454C185.494 139.996 185.781 140.015 186.59 140.362L189.795 141.738C191.575 142.501 192.508 141.909 193.019 140.718C193.416 139.792 193.161 138.481 192.44 137.806L193.984 138.469L194.428 136.257L194.252 136.181C193.825 136.729 193.584 136.765 193.069 136.544L188.967 134.784C188.217 134.462 187.973 134.34 188.051 133.712L187.86 133.63L186.8 136.1L186.991 136.182C187.351 135.709 187.603 135.73 188.411 136.077L191.984 137.611C192.463 137.955 192.933 138.888 192.605 139.653C192.189 140.623 191.3 140.869 190.3 140.44L187.139 139.083C186.389 138.762 186.122 138.612 186.2 137.984L186.024 137.908L184.964 140.379L185.14 140.454Z" fill="black"/>
<path d="M177.778 157.149C176.867 156.498 176.706 155.401 177.319 154.541C178.127 153.408 179.539 153.412 181.61 154.89C183.694 156.376 183.684 157.685 183.071 158.545C182.504 159.34 181.322 159.675 180.058 158.774L177.778 157.149ZM175.008 157.865C175.379 157.344 175.56 157.256 176.198 157.711L184.796 163.843L185.717 161.807L185.547 161.687C185.062 162.146 184.8 162.156 184.344 161.831L181.634 159.898C182.241 159.682 182.804 159.278 183.259 158.64C184.504 156.894 184.413 154.845 182.394 153.405C180.57 152.104 178.474 152.122 177.229 153.868C176.774 154.506 176.451 155.593 176.827 156.47L176.111 155.959C176.111 155.959 175.811 155.746 175.616 156.157L174.838 157.744L175.008 157.865Z" fill="black"/>
<path d="M156.413 186.671C157.278 187.959 157.43 188.243 156.887 188.782L157.003 188.954L159.353 187.374L159.237 187.202C158.785 187.332 158.593 187.075 157.727 185.787L155.772 182.879L159.411 180.434L161.365 183.342C162.231 184.63 162.397 184.904 162.105 185.274L162.221 185.446L164.585 183.857L164.469 183.685C163.751 183.994 163.483 183.653 162.68 182.458L158.851 176.761C157.994 175.487 157.838 175.341 158.417 174.682L158.301 174.509L155.937 176.098L156.053 176.271C156.514 176.154 156.626 176.291 157.536 177.645L159.259 180.208L155.621 182.654L153.898 180.091C153.103 178.909 152.916 178.573 153.185 178.199L153.069 178.026L150.719 179.606L150.835 179.779C151.65 179.501 151.851 179.886 152.583 180.975L156.413 186.671Z" fill="black"/>
<path d="M140.538 189.548C141.282 191.422 140.796 192.975 139.948 193.311C139.235 193.594 137.92 193.1 137.058 190.929L140.538 189.548ZM135.429 189.338C135.407 188.503 136.245 187.534 137.172 187.269C138.395 186.922 139.606 187.371 140.462 189.355L135.702 191.243C136.629 193.578 138.255 194.206 139.98 193.522C141.825 192.79 142.656 190.808 141.783 188.607C141.004 186.644 139.067 185.622 137.208 186.36C135.453 187.056 135.107 188.57 135.221 189.334L135.429 189.338Z" fill="black"/>
<path d="M120.092 195.664C120.092 195.664 119.671 193.334 119.668 193.318C119.757 192.912 120.042 192.242 120.877 192.091C121.837 191.918 122.263 192.654 122.346 193.11C122.516 194.055 121.839 194.893 120.092 195.664ZM117.372 192.758C118.096 192.627 118.259 193.621 118.259 193.621L118.743 196.298C119.082 198.172 119.785 199.362 121.501 199.051C121.501 199.051 122.281 198.959 122.896 198.49C123.663 197.88 123.845 197.359 123.913 197.103C123.999 196.86 123.911 196.551 123.695 196.346C123.399 196.058 122.931 196.077 122.662 196.386C122.374 196.682 122.396 197.166 122.689 197.438C122.846 197.589 123.034 197.636 123.228 197.633C123.326 197.632 123.285 197.948 122.725 198.358C121.571 199.169 120.587 198.403 120.294 196.782L120.129 195.869C122.696 194.689 123.972 194.101 123.687 192.526C123.394 190.905 121.599 191.229 121.599 191.229C120.497 191.428 119.686 192.16 119.602 192.956C119.263 191.619 118.025 191.875 118.025 191.875C117.206 192.023 116.779 192.718 116.77 193.208L116.973 193.252C117.009 192.823 117.372 192.758 117.372 192.758Z" fill="black"/>
<path d="M101.684 194.607C101.813 194.272 102.199 193.938 102.663 193.94C103.415 193.944 103.877 194.378 103.871 195.658L103.848 200.49L101.992 200.481L101.943 200.689L103.847 200.698L103.836 203.194L105.229 202.976L105.239 200.704L106.087 200.708L106.056 200.5L105.24 200.496L105.263 195.616C105.272 193.68 104.571 193.165 103.403 193.159C102.475 193.155 101.752 193.824 101.524 194.527L101.684 194.607Z" fill="black"/>
<path d="M88.1533 201.063C87.7108 200.993 87.2896 201.298 87.2193 201.741C87.1464 202.199 87.4546 202.604 87.8971 202.675C88.3553 202.748 88.7582 202.455 88.8311 201.997C88.9014 201.555 88.6115 201.136 88.1533 201.063ZM88.027 192.278C88.5732 192.511 88.6146 192.761 88.4739 193.645L87.5243 199.618L89.762 199.504L89.7921 199.315C89.1561 199.035 89.0648 198.794 89.1528 198.241L89.8486 193.864C89.9767 193.058 90.0535 192.779 90.6816 192.7L90.7143 192.495L88.0596 192.073L88.027 192.278Z" fill="black"/>
<path d="M71.6432 187.931C72.1252 188.251 72.1268 188.539 71.8387 189.371L70.6967 192.666C70.0628 194.496 70.7203 195.384 71.9448 195.808C72.8973 196.138 74.1866 195.789 74.808 195.022L74.2579 196.61L76.4961 196.894L76.559 196.713C75.9817 196.326 75.9288 196.088 76.1122 195.559L77.5737 191.341C77.8409 190.57 77.9451 190.318 78.5772 190.351L78.6453 190.154L76.1054 189.274L76.0373 189.471C76.5344 189.795 76.5315 190.048 76.2433 190.88L74.9704 194.554C74.6608 195.056 73.7639 195.592 72.9778 195.319C71.98 194.974 71.6715 194.105 72.0277 193.077L73.154 189.826C73.4212 189.055 73.5509 188.779 74.1831 188.811L74.2459 188.63L71.7061 187.75L71.6432 187.931Z" fill="black"/>
<path d="M53.5372 184.597C54.4703 183.067 55.4632 183.129 56.0915 183.512C56.6926 183.879 57.2159 184.741 56.2827 186.271C55.3496 187.801 54.4333 187.767 53.7503 187.35C53.163 186.992 52.604 186.126 53.5372 184.597ZM50.5402 184.287C50.1473 184.347 49.8731 184.704 49.9113 185.102C49.9533 185.372 50.1711 185.598 50.398 185.718C50.7509 185.877 51.4139 186.019 52.094 185.703C52.3031 186.374 52.8225 187.028 53.642 187.528C55.2129 188.486 56.7962 188.102 57.4711 186.996C57.9127 186.272 58.0158 185.304 57.4835 184.548C58.9787 184.954 59.624 183.774 59.624 183.774C59.9239 183.282 59.9303 182.78 59.6508 182.347C60.8606 182.392 62.0782 181.747 62.1394 180.51C62.2125 179.13 60.193 177.617 57.6801 177.528C55.7542 177.459 55.0634 178.499 55.0634 178.499C53.7261 180.139 55.4122 181.092 56.3547 181.667L57.9938 182.667C59.6057 183.65 58.0645 184.64 57.3559 184.358C57.0924 183.991 56.7326 183.659 56.1999 183.334C54.6017 182.36 53.0236 182.765 52.3488 183.872C52.0488 184.363 51.9045 184.969 52.0377 185.519C51.5752 185.724 51.1184 185.52 51.2124 185.427C51.345 185.302 51.3904 185.105 51.3644 184.902C51.3261 184.504 50.9467 184.235 50.5402 184.287ZM61.0242 180.28C61.0135 180.236 61.3541 182.074 59.5316 182.143C59.1701 181.66 58.6291 181.349 58.4788 181.257L56.5938 180.108C55.4191 179.391 55.7894 178.661 55.7894 178.661C55.7894 178.661 56.2187 177.742 57.684 177.736C59.358 177.727 60.8488 179.123 61.0242 180.28Z" fill="black"/>
<path d="M27.9179 159.226C30.6567 157.43 32.3448 159.562 33.3868 160.921L33.7416 161.375L26.3177 167.18C25.4102 167.889 24.8904 167.666 24.4666 167.124L24.3028 167.252L26.6484 170.252L26.8123 170.124C26.3885 169.582 26.4813 169.103 27.2501 168.502L33.401 163.692C34.258 163.022 34.8553 162.799 35.2791 163.341L35.4429 163.213L30.5249 156.923L27.7898 159.062L27.9179 159.226Z" fill="black"/>
<path d="M13.4753 151.432L16.039 150.267L15.9529 150.078C13.5813 151.085 12.5658 148.928 12.3606 148.476L11.9701 147.617L20.6225 143.685C21.5839 143.248 22.0447 143.566 22.3227 144.178L22.5121 144.092L20.8969 140.537L20.7075 140.623C20.9855 141.235 20.9285 141.806 19.9672 142.243L11.3147 146.175L10.9242 145.315C10.8315 145.112 9.75513 142.666 12.0739 141.542L11.9878 141.352L9.4241 142.517L13.4753 151.432Z" fill="black"/>
<path d="M8.52644 119.094C13.7581 118.174 14.3054 120.823 14.6048 122.525L14.7268 123.218L4.04294 125.098L3.92095 124.405C3.61598 122.671 3.43662 119.99 8.52644 119.094ZM8.19374 117.203C3.57666 118.016 3.16437 121.305 3.71609 124.441L4.31218 127.829L4.51703 127.793C4.39504 127.099 5.00609 126.602 5.98309 126.43L13.3421 125.135C14.4136 124.947 15.0817 125.235 15.2009 125.913L15.4058 125.877L14.8097 122.489C14.258 119.353 12.9526 116.366 8.19374 117.203Z" fill="black"/>
</svg>
